<svg width="266" height="42" viewBox="0 0 266 42" fill="none" xmlns="http://www.w3.org/2000/svg">
<rect width="266" height="42" fill="#999999"/>
<path d="M116.022 19.4219L115.327 20.6719C114.556 20.349 113.756 19.9531 112.928 19.4844V20.3828H109.647V21.9531H115.045V23.3281H109.647V27.0547H115.428V28.4141H102.483V27.0547H108.194V23.3281H102.897V21.9531H108.194V20.3828H104.866V19.5234C104.261 19.888 103.543 20.2604 102.709 20.6406L101.811 19.4219C105.066 17.9896 107.332 16.4271 108.608 14.7344L110.053 15.1484C110.017 15.2422 109.946 15.3438 109.842 15.4531C111.045 16.8333 113.105 18.1562 116.022 19.4219ZM112.162 19.0391C110.787 18.1953 109.699 17.3698 108.897 16.5625C107.98 17.4531 106.915 18.2786 105.702 19.0391H112.162ZM113.967 24.2266C113.415 25.2474 112.84 26.0885 112.241 26.75L110.85 26.1406C111.465 25.5 112.045 24.6953 112.592 23.7266L113.967 24.2266ZM107.077 26.3203L105.733 26.7812C105.358 26.0885 104.759 25.2578 103.936 24.2891L105.295 23.7266C106.087 24.6589 106.681 25.5234 107.077 26.3203ZM132.216 28.3516L130.966 28.9141C130.908 28.4974 130.817 28.0547 130.692 27.5859C129.276 28.013 127.713 28.4453 126.005 28.8828L125.606 27.5703C126.596 27.362 127.445 27.1536 128.153 26.9453V24.0312H126.052V17.0859H128.122V14.8516H129.442V17.0859H131.606V24.0312H129.442V26.5781C129.661 26.526 129.945 26.4453 130.294 26.3359C130.221 25.9714 130.078 25.5443 129.864 25.0547L131.044 24.5938C131.502 25.7083 131.893 26.9609 132.216 28.3516ZM130.372 22.7344V18.4297H129.442V22.7344H130.372ZM128.122 22.7344V18.4297H127.302V22.7344H128.122ZM125.716 16.4297H117.989V15.1875H125.716V16.4297ZM124.794 20.5469H118.95V17.25H124.794V20.5469ZM123.466 19.3438V18.4297H120.309V19.3438H123.466ZM125.364 27.4688C125.364 27.8854 125.286 28.1901 125.13 28.3828C124.979 28.5807 124.799 28.6979 124.591 28.7344C124.382 28.776 123.958 28.7969 123.317 28.7969L122.934 27.5391C123.033 27.5495 123.14 27.5547 123.255 27.5547C123.63 27.5547 123.859 27.5182 123.942 27.4453C124.026 27.3672 124.067 27.276 124.067 27.1719V22.5938H122.95L123.606 23.1484C123.455 23.6953 123.302 24.2135 123.145 24.7031H123.637V25.8906H122.567V28.4141H121.27V25.8906H120.184V24.7031H120.63C120.473 24.0729 120.304 23.5391 120.122 23.1016L120.809 22.5938H119.747V28.8125H118.419V21.3438H125.364V27.4688ZM122.614 22.5938H121.13C121.369 23.2917 121.585 23.9948 121.778 24.7031H121.973C122.281 23.901 122.494 23.1979 122.614 22.5938ZM138.972 15.3438C137.805 16.901 136.381 18.1693 134.698 19.1484L134.011 17.7734C135.282 17.112 136.472 16.0885 137.581 14.7031L138.972 15.3438ZM147.659 16.7031H139.613V15.3125H147.659V16.7031ZM139.308 18.3047C138.813 19.1432 138.284 19.9323 137.722 20.6719V28.8125H136.238V22.3828C135.665 22.9505 135.131 23.3932 134.636 23.7109L134.011 22.2891C135.365 21.4036 136.672 19.888 137.933 17.7422L139.308 18.3047ZM148.058 20.75H145.902V27.2344C145.902 28.2969 145.323 28.8281 144.167 28.8281C143.428 28.8281 142.704 28.8125 141.995 28.7812L141.464 27.3281C141.912 27.3385 142.74 27.3438 143.948 27.3438C144.053 27.3438 144.152 27.3021 144.245 27.2188C144.344 27.1302 144.394 27.0234 144.394 26.8984V20.75H139.175V19.3438H148.058V20.75ZM154.994 19.2188L154.236 20.3359C154.054 19.9245 153.83 19.5417 153.564 19.1875V28.7969H152.173V14.8672H153.564V17.6016C154.007 17.987 154.483 18.526 154.994 19.2188ZM164.142 20.7344H155.041V19.5859H158.877V18.7969H155.502V17.7109H158.877V16.9766H155.025V15.8594H158.877V14.8828H160.236V15.8594H163.853V16.9766H160.236V17.7109H163.423V18.7969H160.236V19.5859H164.142V20.7344ZM151.791 18.4766C151.739 19.9609 151.577 21.237 151.306 22.3047L150.095 21.8438C150.429 20.5573 150.608 19.3516 150.634 18.2266L151.791 18.4766ZM163.423 27.5859C163.423 28.4297 162.822 28.8516 161.619 28.8516C161.223 28.8516 160.801 28.8385 160.353 28.8125L159.869 27.5547C160.91 27.5703 161.538 27.5677 161.752 27.5469C161.97 27.526 162.08 27.401 162.08 27.1719V26.3203H156.845C156.595 27.3255 156.132 28.2161 155.455 28.9922L154.267 28.0781C155.184 27.2865 155.642 25.9974 155.642 24.2109V21.4688H163.423V27.5859ZM162.08 23.3906V22.5938H157.056V23.3906H162.08ZM162.08 25.2188V24.3984H157.025C157.025 24.6276 157.015 24.901 156.994 25.2188H162.08Z" fill="white"/>
</svg>
