<svg width="230" height="38" viewBox="0 0 230 38" fill="none" xmlns="http://www.w3.org/2000/svg">
<path d="M1 5C1 2.79086 2.79086 1 5 1H225C227.209 1 229 2.79086 229 5V33C229 35.2091 227.209 37 225 37H5C2.79086 37 1 35.2091 1 33V5Z" fill="white"/>
<path d="M54.6852 14.75L53.7243 15.7422C53.0576 15.0182 52.2295 14.3516 51.2399 13.7422L52.154 12.7188C52.9509 13.1667 53.7946 13.8438 54.6852 14.75ZM64.8571 22.4141L63.9118 23.4844C63.2243 22.5365 62.4795 21.6849 61.6774 20.9297C61.6931 21.1901 61.7009 21.4505 61.7009 21.7109C61.7009 22.9714 61.503 23.8047 61.1071 24.2109C60.7113 24.612 59.9222 24.8125 58.7399 24.8125C58.5733 24.8125 58.4092 24.8073 58.2477 24.7969L57.8493 23.4375C58.0628 23.4531 58.3024 23.4609 58.5681 23.4609C58.9535 23.4609 59.2503 23.4531 59.4587 23.4375C59.667 23.4167 59.8363 23.3464 59.9665 23.2266C60.1019 23.1016 60.1983 22.9167 60.2556 22.6719C60.3181 22.4219 60.3493 22.0521 60.3493 21.5625C60.3493 21.2865 60.3337 21.0156 60.3024 20.75C58.9118 22.0573 57.3962 23.0807 55.7556 23.8203L54.9743 22.6875C56.9691 21.875 58.68 20.7188 60.1071 19.2188C60.1071 18.8854 60.016 18.526 59.8337 18.1406C58.6722 19.2135 57.3493 20.099 55.8649 20.7969L55.1462 19.7422C56.8649 18.9714 58.2582 18.0443 59.3259 16.9609C59.2269 16.7734 59.1097 16.5911 58.9743 16.4141C57.8441 17.138 56.8128 17.6771 55.8806 18.0312L55.1931 16.8984C57.0003 16.2161 58.3493 15.3984 59.2399 14.4453H55.3415V13.2031H64.6227V14.4453H60.9431C60.6878 14.8255 60.3675 15.1953 59.9821 15.5547C60.5602 16.3984 60.9639 17.1927 61.1931 17.9375C62.0733 17.3438 62.8363 16.6562 63.4821 15.875L64.4743 16.8125C63.4951 17.8333 62.4977 18.6198 61.4821 19.1719C63.0082 20.401 64.1332 21.4818 64.8571 22.4141ZM64.8727 25.3906L64.4899 26.75C60.7399 26.75 58.3832 26.7214 57.4196 26.6641C56.4613 26.612 55.6592 26.4401 55.0134 26.1484C54.3727 25.862 53.8259 25.4766 53.3727 24.9922C52.904 25.7005 52.4014 26.3464 51.8649 26.9297L50.7477 26.0156C52.0602 24.7188 52.9352 23.2214 53.3727 21.5234H51.0837V20.2422C51.9899 19.1589 52.6826 18.2188 53.1618 17.4219H50.8884V16.125H54.7321V17.4219C54.0498 18.4844 53.3832 19.4349 52.7321 20.2734H54.8259V21.5234C54.6071 22.3828 54.3207 23.1667 53.9665 23.875C54.5655 24.5417 55.2686 24.9688 56.0759 25.1562C56.8884 25.3438 58.5967 25.4375 61.2009 25.4375C62.18 25.4375 63.404 25.4219 64.8727 25.3906ZM81.1189 20.1797H67.197V18.7656H81.1189V20.1797ZM97.6854 16.2578L96.9823 17.4375C96.3521 17.1562 95.7271 16.8203 95.1073 16.4297V17.3438H90.2245V16.4609C89.662 16.8568 89.1672 17.1719 88.7401 17.4062L87.9354 16.2891C89.9198 15.2266 91.3938 14.0104 92.3573 12.6406L93.6854 13.1328L93.4901 13.4375C94.4172 14.4948 95.8156 15.4349 97.6854 16.2578ZM94.5604 16.1094C93.9979 15.7344 93.3703 15.1797 92.6776 14.4453C92.2661 14.8828 91.6307 15.4375 90.7714 16.1094H94.5604ZM88.4823 19.9219L87.5839 20.8125C87.3026 20.2292 87.0474 19.7292 86.8182 19.3125V26.8281H85.3964V20.2578C85.0786 21.1016 84.6255 22.0078 84.037 22.9766L83.3182 21.3438C84.3391 19.8542 85.0057 18.4193 85.3182 17.0391H83.5526V15.6953H85.3964V12.8516H86.8182V15.6953H87.7948V17.0391H86.8182V17.3281C87.537 18.2812 88.0917 19.1458 88.4823 19.9219ZM96.8026 22.2109H93.201V18.1562H96.8026V22.2109ZM95.537 20.9453V19.3906H94.4354V20.9453H95.537ZM92.2245 22.2109H88.6229V18.1562H92.2245V22.2109ZM90.9589 20.9453V19.3906H89.8885V20.9453H90.9589ZM97.701 25.8906L96.787 26.8984C96.1047 26.1797 95.412 25.5599 94.7089 25.0391C94.1932 25.8672 93.6646 26.5182 93.1229 26.9922L92.0526 26.1406C93.0318 25.3073 93.8156 24.0651 94.4042 22.4141L95.6854 22.7812C95.6125 23.0938 95.4953 23.4297 95.3339 23.7891C96.3078 24.5443 97.0969 25.2448 97.701 25.8906ZM92.451 24.9766L91.5995 26.0938C91.0005 25.5104 90.537 25.1016 90.2089 24.8672C89.5734 25.7734 88.912 26.4714 88.2245 26.9609L87.2167 26.0625C88.3417 25.2552 89.2479 24.0495 89.9354 22.4453L91.2635 22.7969C91.1594 23.125 91.0318 23.4089 90.8807 23.6484C91.5422 24.1484 92.0656 24.5911 92.451 24.9766ZM103.924 14.7031L102.643 15.3125C102.278 14.6719 101.809 14.0312 101.236 13.3906L102.471 12.6875C103.184 13.5156 103.669 14.1875 103.924 14.7031ZM114.057 23.8438C113.989 25.0885 113.809 25.8776 113.518 26.2109C113.231 26.5443 112.619 26.7109 111.682 26.7109C110.51 26.7109 109.924 26.2656 109.924 25.375V22.1406H108.9C108.63 24.5365 107.408 26.1589 105.236 27.0078L104.408 25.8203C106.361 25.0182 107.39 23.7917 107.494 22.1406H105.994V13.2344H112.963V22.1406H111.268V24.9453C111.268 25.263 111.473 25.4219 111.885 25.4219C112.161 25.4219 112.353 25.3385 112.463 25.1719C112.572 25.0052 112.661 24.375 112.728 23.2812L114.057 23.8438ZM111.603 15.7422V14.4453H107.4V15.7422H111.603ZM111.603 18.3047V16.9766H107.4V18.3047H111.603ZM111.603 20.8984V19.5234H107.4V20.8984H111.603ZM105.768 21.5234L104.775 22.5938C104.593 22.2292 104.166 21.6146 103.494 20.75V26.7969H102.103V21.4844C101.374 22.1458 100.877 22.5781 100.611 22.7812L99.8457 21.5234C101.611 20.2682 102.874 18.737 103.635 16.9297H100.088V15.5391H105.143V16.9297C104.856 17.638 104.445 18.4219 103.908 19.2812C104.84 20.3177 105.46 21.0651 105.768 21.5234ZM119.67 14.7188L118.717 15.6953C118.128 15.0078 117.412 14.3411 116.568 13.6953L117.545 12.7344C118.561 13.5573 119.269 14.2188 119.67 14.7188ZM129.834 18.1562H126.686C126.269 18.1562 125.959 18.0573 125.756 17.8594C125.553 17.6615 125.451 17.2969 125.451 16.7656V12.9922H129.389V15.9375H126.748V16.7656C126.748 16.9479 126.839 17.0391 127.022 17.0391H129.834V18.1562ZM128.092 14.8516V14.0781H126.748V14.8516H128.092ZM124.717 17.8203L120.615 18.625L120.326 17.4375C120.529 17.3698 120.631 17.2109 120.631 16.9609V12.9922H124.553V15.9531H121.912V17.2344C122.318 17.1771 123.243 16.9948 124.686 16.6875L124.717 17.8203ZM123.256 14.8516V14.0781H121.912V14.8516H123.256ZM130.279 25.3281L129.881 26.6719C128.85 26.6979 127.725 26.7109 126.506 26.7109C125.183 26.7109 124.102 26.7005 123.264 26.6797C122.425 26.6589 121.587 26.5156 120.748 26.25C119.915 25.9844 119.204 25.5703 118.615 25.0078C117.985 25.9714 117.511 26.6276 117.193 26.9766L116.107 26.0469C117.378 24.5625 118.136 23.0703 118.381 21.5703H116.412V20.2109C117.152 19.2578 117.738 18.3568 118.17 17.5078H116.248V16.1562H119.709V17.5078C119.245 18.3932 118.686 19.3151 118.029 20.2734H119.756C119.782 20.4818 119.795 20.6979 119.795 20.9219C119.795 21.8698 119.589 22.8255 119.178 23.7891C119.678 24.2786 120.259 24.6536 120.92 24.9141C121.581 25.1693 122.472 25.3151 123.592 25.3516C124.717 25.3828 125.725 25.3984 126.615 25.3984C127.917 25.3984 129.139 25.375 130.279 25.3281ZM130.029 22.7188H120.123V21.5547H122.506V20.6094H120.475V19.4219H122.506V18.6406H123.865V19.4219H126.232V18.6406H127.592V19.4219H129.607V20.6094H127.592V21.5547H130.029V22.7188ZM126.232 21.5547V20.6094H123.865V21.5547H126.232ZM124.35 23.7422C123.647 24.1849 122.66 24.5807 121.389 24.9297L120.397 23.8594C121.339 23.651 122.318 23.3151 123.334 22.8516L124.35 23.7422ZM129.912 24.0156L129.037 25.0547C128.016 24.5807 126.99 24.2031 125.959 23.9219L126.826 22.8828C127.717 23.138 128.745 23.5156 129.912 24.0156ZM137.901 25.4688C137.901 26.3698 137.377 26.8203 136.33 26.8203C136.101 26.8203 135.861 26.8073 135.611 26.7812L135.088 25.375C135.281 25.3854 135.69 25.3906 136.315 25.3906C136.466 25.3906 136.541 25.3177 136.541 25.1719V21.3125C136.052 21.9271 135.614 22.4401 135.229 22.8516L134.752 22.0469C134.591 24.2865 134.249 25.8932 133.729 26.8672L132.572 25.9688C133.13 24.7344 133.408 22.9688 133.408 20.6719V13.1016H137.901V25.4688ZM136.541 17.7422V14.4922H134.768V16.3047L135.58 15.7109C136.002 16.4557 136.322 17.1328 136.541 17.7422ZM136.541 19.0547V18.1406L135.596 18.8516C135.455 18.2422 135.179 17.5469 134.768 16.7656V21.25C135.429 20.5573 136.02 19.8255 136.541 19.0547ZM146.557 18.5781H144.283C143.971 18.5781 143.716 18.4661 143.518 18.2422C143.325 18.0182 143.229 17.7604 143.229 17.4688V14.5781H141.002V15.2969C141.002 16.8958 140.486 18.1432 139.455 19.0391L138.283 18.125C139.148 17.4792 139.58 16.5208 139.58 15.25V13.2188H144.619V17.0078C144.619 17.1797 144.705 17.2656 144.877 17.2656H146.557V18.5781ZM146.721 25.6484L146.01 26.8672C144.682 26.5339 143.445 25.9401 142.299 25.0859C141.377 25.7734 140.236 26.3672 138.877 26.8672L138.096 25.6484C139.247 25.3099 140.281 24.8203 141.197 24.1797C140.411 23.3464 139.76 22.2188 139.244 20.7969H138.541V19.4531H145.643V20.7969C144.966 22.2135 144.221 23.3177 143.408 24.1094C144.32 24.7604 145.424 25.2734 146.721 25.6484ZM144.026 20.7969H140.752C141.19 21.8646 141.726 22.6823 142.361 23.25C143.08 22.4479 143.635 21.6302 144.026 20.7969ZM154.897 21.7578L153.748 22.2734C153.707 22.0807 153.641 21.862 153.553 21.6172C152.188 21.9766 150.774 22.2865 149.311 22.5469L148.99 21.3438C149.865 20.6719 150.766 19.638 151.694 18.2422C150.897 18.3672 150.123 18.4635 149.373 18.5312L149.076 17.4062C150.071 16.3594 151.014 14.7812 151.905 12.6719L153.201 13.1719C152.545 14.6198 151.761 15.9349 150.85 17.1172C151.516 17.0443 152.082 16.9479 152.545 16.8281C152.811 16.3958 153.035 15.9818 153.217 15.5859L154.467 16.1953C153.436 18.138 152.3 19.7266 151.061 20.9609C151.54 20.8828 152.217 20.7161 153.092 20.4609C152.972 20.1589 152.86 19.9141 152.756 19.7266L153.873 19.2188C154.295 19.9948 154.636 20.8411 154.897 21.7578ZM162.912 16.0938H159.459V17.8594H162.608V19.1719H155.061V17.8594H158.03V16.0938H154.608V14.7344H158.03V12.8672H159.459V14.7344H162.912V16.0938ZM162.334 26.8125H160.897V26.0625H156.803V26.8125H155.311V20.6719H162.334V26.8125ZM160.897 24.7344V22H156.803V24.7344H160.897ZM155.061 25.3438L153.92 25.6797C153.785 24.737 153.535 23.776 153.17 22.7969L154.287 22.4766C154.694 23.5443 154.951 24.5 155.061 25.3438ZM153.17 26.1406L151.936 26.4766C151.899 25.4818 151.74 24.3411 151.459 23.0547L152.592 22.7812C152.873 23.7812 153.066 24.901 153.17 26.1406ZM151.037 23.1484C150.829 24.5599 150.498 25.8151 150.045 26.9141L148.865 26.3672C149.334 25.1849 149.649 23.9948 149.811 22.7969L151.037 23.1484ZM179.432 25.25L178.705 26.4922C176.528 25.5651 174.63 24.2396 173.01 22.5156V26.7812H171.573V22.5625C169.88 24.2812 167.997 25.5599 165.924 26.3984L165.159 25.2031C167.382 24.3021 169.195 23.138 170.596 21.7109H165.268V20.4453H171.573V19.2188H166.643V13.0859H178.002V19.2188H173.01V20.4453H179.252V21.7109H174.034C175.466 23.2005 177.265 24.3802 179.432 25.25ZM176.565 15.5234V14.3359H173.01V15.5234H176.565ZM171.573 15.5234V14.3359H168.104V15.5234H171.573ZM176.565 17.9688V16.7031H173.01V17.9688H176.565ZM171.573 17.9688V16.7031H168.119V17.9688H171.573Z" fill="#FF0A00"/>
<path d="M5 1.5H225V0.5H5V1.5ZM228.5 5V33H229.5V5H228.5ZM225 36.5H5V37.5H225V36.5ZM1.5 33V5H0.5V33H1.5ZM5 36.5C3.067 36.5 1.5 34.933 1.5 33H0.5C0.5 35.4853 2.51472 37.5 5 37.5V36.5ZM228.5 33C228.5 34.933 226.933 36.5 225 36.5V37.5C227.485 37.5 229.5 35.4853 229.5 33H228.5ZM225 1.5C226.933 1.5 228.5 3.067 228.5 5H229.5C229.5 2.51472 227.485 0.5 225 0.5V1.5ZM5 0.5C2.51472 0.5 0.5 2.51472 0.5 5H1.5C1.5 3.067 3.067 1.5 5 1.5V0.5Z" fill="#FF0A00"/>
</svg>
