<svg width="228" height="36" viewBox="0 0 228 36" fill="none" xmlns="http://www.w3.org/2000/svg">
<path d="M0 4C0 1.79086 1.79086 0 4 0H224C226.209 0 228 1.79086 228 4V32C228 34.2091 226.209 36 224 36H4C1.79086 36 0 34.2091 0 32V4Z" fill="#FF0A00"/>
<path d="M71.0017 14.5547H66.197V13.3047H68.0095C67.921 13.0443 67.7439 12.6589 67.4783 12.1484L68.9002 11.7656C69.1502 12.2917 69.3689 12.8047 69.5564 13.3047H71.0017V14.5547ZM79.7674 24.5859C79.7674 25.0234 79.6319 25.3464 79.3611 25.5547C79.0903 25.763 78.7726 25.8672 78.408 25.8672C78.1163 25.8672 77.7101 25.8542 77.1892 25.8281L76.7283 24.4844L78.1658 24.4688C78.2127 24.4688 78.2648 24.4427 78.322 24.3906C78.3793 24.3333 78.408 24.2812 78.408 24.2344V18.5859H73.1267C73.0851 21.9974 72.7075 24.4505 71.9939 25.9453L70.8377 25.0625C71.4366 23.6094 71.7361 21.4661 71.7361 18.6328V12.3125H79.7674V24.5859ZM78.408 14.8438V13.625H76.408V14.8438H78.408ZM75.0486 14.8438V13.625H73.1267V14.8438H75.0486ZM78.408 17.3672V16.1016H76.408V17.3672H78.408ZM75.0486 17.3672V16.1016H73.1267V17.3672H75.0486ZM70.6502 16.9062H66.533V15.6562H70.6502V16.9062ZM70.6502 19.2891H66.533V17.9922H70.6502V19.2891ZM77.8299 23.7344H73.658V19.7188H77.8299V23.7344ZM76.5486 22.5234V20.9844H74.9705V22.5234H76.5486ZM70.6345 25.4609H69.2908V24.8203H67.908V25.8125H66.5486V20.3438H70.6345V25.4609ZM69.2908 23.5156V21.6094H67.908V23.5156H69.2908ZM96.5995 18.9844L95.9589 20.1172C94.9068 19.8255 93.9589 19.3516 93.1151 18.6953C92.2193 19.2786 91.201 19.7318 90.0604 20.0547L89.3885 18.9062C90.3781 18.6562 91.3052 18.2865 92.1698 17.7969C91.774 17.2656 91.4979 16.7812 91.3417 16.3438L92.4276 15.7969C92.5839 16.1667 92.8234 16.5625 93.1464 16.9844C93.6516 16.4635 94.0083 15.6484 94.2167 14.5391H92.2948C91.7375 15.4453 91.1464 16.224 90.5214 16.875L89.6932 15.8828C90.7349 14.7682 91.55 13.3698 92.1385 11.6875L93.3885 12.0391C93.2427 12.4922 93.0656 12.9349 92.8573 13.3672H96.3807V14.5391H95.5135C95.3417 15.8776 94.8781 16.974 94.1229 17.8281C94.6802 18.3073 95.5057 18.6927 96.5995 18.9844ZM89.9979 13.625H86.9198V14.2344H89.4823V17.1406H86.9198V17.2578C87.8625 17.5599 88.7115 17.8854 89.4667 18.2344L88.9042 19.3047C88.1802 18.9245 87.5188 18.6198 86.9198 18.3906V20.0547H85.6464V18.2656C84.8391 19.0521 83.9849 19.6589 83.0839 20.0859L82.3651 19.0469C83.3859 18.5885 84.3078 17.9531 85.1307 17.1406H83.037V14.2344H85.6464V13.625H82.4745V12.5078H85.6464V11.8125H86.9198V12.5078H89.9979V13.625ZM88.2323 16.0859V15.2734H86.9198V16.0859H88.2323ZM85.6464 16.0859V15.2734H84.3495V16.0859H85.6464ZM96.4745 25.4453H82.5214V24.2812H84.9901V22.2969H86.3807V24.2812H88.7948V21.5938H82.7792V20.4688H96.2167V21.5938H90.2323V22.3906H95.5448V23.4766H90.2323V24.2812H96.4745V25.4453ZM102.314 13.7188L101.361 14.6953C100.773 14.0078 100.057 13.3411 99.2128 12.6953L100.189 11.7344C101.205 12.5573 101.913 13.2188 102.314 13.7188ZM112.478 17.1562H109.33C108.913 17.1562 108.603 17.0573 108.4 16.8594C108.197 16.6615 108.096 16.2969 108.096 15.7656V11.9922H112.033V14.9375H109.393V15.7656C109.393 15.9479 109.484 16.0391 109.666 16.0391H112.478V17.1562ZM110.736 13.8516V13.0781H109.393V13.8516H110.736ZM107.361 16.8203L103.26 17.625L102.971 16.4375C103.174 16.3698 103.275 16.2109 103.275 15.9609V11.9922H107.197V14.9531H104.557V16.2344C104.963 16.1771 105.887 15.9948 107.33 15.6875L107.361 16.8203ZM105.9 13.8516V13.0781H104.557V13.8516H105.9ZM112.924 24.3281L112.525 25.6719C111.494 25.6979 110.369 25.7109 109.15 25.7109C107.827 25.7109 106.747 25.7005 105.908 25.6797C105.07 25.6589 104.231 25.5156 103.393 25.25C102.559 24.9844 101.848 24.5703 101.26 24.0078C100.63 24.9714 100.156 25.6276 99.8378 25.9766L98.7519 25.0469C100.023 23.5625 100.781 22.0703 101.025 20.5703H99.0566V19.2109C99.7962 18.2578 100.382 17.3568 100.814 16.5078H98.8925V15.1562H102.353V16.5078C101.89 17.3932 101.33 18.3151 100.674 19.2734H102.4C102.426 19.4818 102.439 19.6979 102.439 19.9219C102.439 20.8698 102.234 21.8255 101.822 22.7891C102.322 23.2786 102.903 23.6536 103.564 23.9141C104.226 24.1693 105.116 24.3151 106.236 24.3516C107.361 24.3828 108.369 24.3984 109.26 24.3984C110.562 24.3984 111.783 24.375 112.924 24.3281ZM112.674 21.7188H102.768V20.5547H105.15V19.6094H103.119V18.4219H105.15V17.6406H106.51V18.4219H108.877V17.6406H110.236V18.4219H112.252V19.6094H110.236V20.5547H112.674V21.7188ZM108.877 20.5547V19.6094H106.51V20.5547H108.877ZM106.994 22.7422C106.291 23.1849 105.304 23.5807 104.033 23.9297L103.041 22.8594C103.984 22.651 104.963 22.3151 105.978 21.8516L106.994 22.7422ZM112.557 23.0156L111.682 24.0547C110.661 23.5807 109.635 23.2031 108.603 22.9219L109.471 21.8828C110.361 22.138 111.39 22.5156 112.557 23.0156ZM120.545 24.4688C120.545 25.3698 120.022 25.8203 118.975 25.8203C118.745 25.8203 118.506 25.8073 118.256 25.7812L117.732 24.375C117.925 24.3854 118.334 24.3906 118.959 24.3906C119.11 24.3906 119.186 24.3177 119.186 24.1719V20.3125C118.696 20.9271 118.259 21.4401 117.873 21.8516L117.397 21.0469C117.235 23.2865 116.894 24.8932 116.373 25.8672L115.217 24.9688C115.774 23.7344 116.053 21.9688 116.053 19.6719V12.1016H120.545V24.4688ZM119.186 16.7422V13.4922H117.412V15.3047L118.225 14.7109C118.647 15.4557 118.967 16.1328 119.186 16.7422ZM119.186 18.0547V17.1406L118.24 17.8516C118.1 17.2422 117.824 16.5469 117.412 15.7656V20.25C118.074 19.5573 118.665 18.8255 119.186 18.0547ZM129.201 17.5781H126.928C126.615 17.5781 126.36 17.4661 126.162 17.2422C125.969 17.0182 125.873 16.7604 125.873 16.4688V13.5781H123.647V14.2969C123.647 15.8958 123.131 17.1432 122.1 18.0391L120.928 17.125C121.792 16.4792 122.225 15.5208 122.225 14.25V12.2188H127.264V16.0078C127.264 16.1797 127.35 16.2656 127.522 16.2656H129.201V17.5781ZM129.365 24.6484L128.654 25.8672C127.326 25.5339 126.089 24.9401 124.943 24.0859C124.022 24.7734 122.881 25.3672 121.522 25.8672L120.74 24.6484C121.891 24.3099 122.925 23.8203 123.842 23.1797C123.055 22.3464 122.404 21.2188 121.889 19.7969H121.186V18.4531H128.287V19.7969C127.61 21.2135 126.865 22.3177 126.053 23.1094C126.964 23.7604 128.068 24.2734 129.365 24.6484ZM126.67 19.7969H123.397C123.834 20.8646 124.37 21.6823 125.006 22.25C125.725 21.4479 126.279 20.6302 126.67 19.7969ZM145.705 17.9297L145.158 19.1953C143.763 18.9297 142.466 18.4531 141.268 17.7656C140.153 18.4531 138.947 18.9349 137.651 19.2109L137.01 17.9922C138.052 17.8047 139.054 17.474 140.018 17C139.539 16.6042 139.114 16.1979 138.744 15.7812L139.799 15.0469C140.19 15.4844 140.648 15.8802 141.174 16.2344C141.684 15.8698 142.223 15.2135 142.791 14.2656H139.494C138.973 15.1146 138.46 15.7708 137.955 16.2344L137.01 15.3203C137.848 14.4818 138.627 13.2604 139.346 11.6562L140.58 12.0234C140.455 12.3984 140.317 12.7083 140.166 12.9531H145.33V14.2656H144.197C143.656 15.4219 143.049 16.3021 142.377 16.9062C143.19 17.3646 144.299 17.7057 145.705 17.9297ZM135.385 12.0859L134.44 15V25.8672H133.096V17.9609C132.71 18.638 132.38 19.1562 132.104 19.5156L131.416 17.9609C132.421 16.4922 133.302 14.4115 134.057 11.7188L135.385 12.0859ZM136.69 23.5938H135.361V13.8828H136.69V23.5938ZM145.361 21.1562H141.893V25.8672H140.455V21.1562H137.299V19.7969H140.455V18.6641H141.893V19.7969H145.361V21.1562ZM145.526 24.875L144.338 25.5781C143.942 24.7188 143.249 23.6302 142.26 22.3125L143.346 21.5938C144.356 22.8438 145.083 23.9375 145.526 24.875ZM140.041 22.2344C139.348 23.5781 138.552 24.6927 137.651 25.5781L136.518 24.7891C137.231 24.1484 138.005 23.1042 138.838 21.6562L140.041 22.2344ZM152.412 12.0547C152.225 12.6276 151.949 13.3333 151.584 14.1719L151.03 15.3984V25.7969H149.561V17.9766C149.285 18.3464 148.944 18.7682 148.537 19.2422L147.787 17.625C148.996 16.2083 150.045 14.25 150.936 11.75L152.412 12.0547ZM161.881 21.0625H157.74V25.8516H156.295V21.0625H151.756V19.6875H156.295V16.1328H154.092C153.628 17.2161 153.175 18.0807 152.733 18.7266C152.446 18.5443 152.035 18.2448 151.498 17.8281C152.431 16.4062 153.183 14.5625 153.756 12.2969L155.24 12.5703C155.11 13.0703 154.897 13.8047 154.6 14.7734H156.295V11.8672H157.74V14.7734H161.545V16.1328H157.74V19.6875H161.881V21.0625Z" fill="white"/>
</svg>
