<svg width="92" height="36" viewBox="0 0 92 36" fill="none" xmlns="http://www.w3.org/2000/svg">
<path d="M0 4C0 1.79086 1.79086 0 4 0H88C90.2091 0 92 1.79086 92 4V32C92 34.2091 90.2091 36 88 36H4C1.79086 36 0 34.2091 0 32V4Z" fill="#323D47"/>
<path d="M28.1385 13.0156L27.1464 13.7188C26.7193 13.2344 26.3026 12.8516 25.8964 12.5703L26.8104 11.8281C27.2688 12.1198 27.7115 12.5156 28.1385 13.0156ZM28.6385 24.2188L28.201 25.6094C24.9771 25.6302 22.774 25.6276 21.5917 25.6016C20.4094 25.5755 19.3729 25.3568 18.4823 24.9453C17.5969 24.5286 16.8469 23.8802 16.2323 23C16.1542 23.9531 15.9354 24.9349 15.576 25.9453L14.3807 25.0938C14.8859 23.5052 15.1203 21.4036 15.0839 18.7891H16.412L16.3651 20.8438C16.3651 21.0208 16.6047 21.4297 17.0839 22.0703V17.9453H14.537V16.6484H17.0839V14.8594H14.9198V13.6094H17.0839V11.8281H18.4589V13.6094H20.412V14.8594H18.4589V16.6484H20.8417V17.9453H18.4589V19.7344H20.5526V21H18.4589V23.3828C19.0526 23.7839 19.7401 24.0339 20.5214 24.1328C21.3026 24.2318 22.7688 24.2812 24.9198 24.2812C26.2063 24.2812 27.4458 24.2604 28.6385 24.2188ZM28.5995 20.6484C28.3911 22.5286 27.9172 23.4688 27.1776 23.4688C26.5943 23.4688 26.0891 23.0729 25.662 22.2812C25.2089 22.8542 24.6802 23.3698 24.076 23.8281L23.0839 22.9844C23.8286 22.4531 24.4849 21.7552 25.0526 20.8906C24.5734 19.4427 24.3 17.5547 24.2323 15.2266H22.7479V20.6953C23.274 20.3828 23.7323 20.0833 24.1229 19.7969L24.4745 21.0625C23.4328 21.8333 22.4406 22.3984 21.4979 22.7578L21.0995 21.5312C21.3026 21.3906 21.4042 21.224 21.4042 21.0312V13.9609H24.1854V11.8516H25.4979V13.9609H28.3339V15.2266H25.5448C25.5448 16.6276 25.6828 17.9453 25.9589 19.1797C26.3599 18.263 26.6802 17.2161 26.9198 16.0391L28.1073 16.4219C27.7583 18.099 27.2141 19.6302 26.4745 21.0156C26.5266 21.1823 26.6177 21.375 26.7479 21.5938C26.8833 21.8125 26.9823 21.9219 27.0448 21.9219C27.1073 21.9219 27.1776 21.7604 27.2557 21.4375C27.3391 21.1146 27.399 20.6276 27.4354 19.9766L28.5995 20.6484ZM38.8457 23.8672C38.8457 25.1745 38.317 25.8281 37.2597 25.8281C36.2441 25.8281 35.6165 25.8229 35.3769 25.8125L34.83 24.2969C35.2363 24.3385 35.9029 24.3594 36.83 24.3594C37.1634 24.3594 37.33 24.2109 37.33 23.9141V11.8672H38.8457V23.8672ZM44.9082 22.4844L43.5644 23.1953C43.0384 20.8516 42.1582 18.1953 40.9238 15.2266L42.2363 14.7266C43.304 17.1224 44.1946 19.7083 44.9082 22.4844ZM35.0253 15.1562C34.2649 18.5573 33.2571 21.2031 32.0019 23.0938L30.7832 22.2031C31.9654 20.4427 32.9134 17.9505 33.6269 14.7266L35.0253 15.1562ZM60.8497 13.0156L59.8575 13.7188C59.4304 13.2344 59.0137 12.8516 58.6075 12.5703L59.5215 11.8281C59.9799 12.1198 60.4226 12.5156 60.8497 13.0156ZM61.3497 24.2188L60.9122 25.6094C57.6882 25.6302 55.4851 25.6276 54.3028 25.6016C53.1205 25.5755 52.084 25.3568 51.1934 24.9453C50.308 24.5286 49.558 23.8802 48.9434 23C48.8653 23.9531 48.6465 24.9349 48.2872 25.9453L47.0918 25.0938C47.5971 23.5052 47.8314 21.4036 47.795 18.7891H49.1231L49.0762 20.8438C49.0762 21.0208 49.3158 21.4297 49.795 22.0703V17.9453H47.2481V16.6484H49.795V14.8594H47.6309V13.6094H49.795V11.8281H51.17V13.6094H53.1231V14.8594H51.17V16.6484H53.5528V17.9453H51.17V19.7344H53.2637V21H51.17V23.3828C51.7637 23.7839 52.4512 24.0339 53.2325 24.1328C54.0137 24.2318 55.4799 24.2812 57.6309 24.2812C58.9174 24.2812 60.1569 24.2604 61.3497 24.2188ZM61.3106 20.6484C61.1023 22.5286 60.6283 23.4688 59.8887 23.4688C59.3054 23.4688 58.8002 23.0729 58.3731 22.2812C57.92 22.8542 57.3913 23.3698 56.7872 23.8281L55.795 22.9844C56.5398 22.4531 57.196 21.7552 57.7637 20.8906C57.2846 19.4427 57.0111 17.5547 56.9434 15.2266H55.459V20.6953C55.9851 20.3828 56.4434 20.0833 56.834 19.7969L57.1856 21.0625C56.1439 21.8333 55.1517 22.3984 54.209 22.7578L53.8106 21.5312C54.0137 21.3906 54.1153 21.224 54.1153 21.0312V13.9609H56.8965V11.8516H58.209V13.9609H61.045V15.2266H58.2559C58.2559 16.6276 58.3939 17.9453 58.67 19.1797C59.071 18.263 59.3913 17.2161 59.6309 16.0391L60.8184 16.4219C60.4694 18.099 59.9252 19.6302 59.1856 21.0156C59.2377 21.1823 59.3288 21.375 59.459 21.5938C59.5944 21.8125 59.6934 21.9219 59.7559 21.9219C59.8184 21.9219 59.8887 21.7604 59.9668 21.4375C60.0502 21.1146 60.1101 20.6276 60.1465 19.9766L61.3106 20.6484ZM70.0177 23.5938L69.0255 24.7578C68.5151 24.1693 67.9135 23.5729 67.2208 22.9688C66.6271 23.9115 65.7469 24.8724 64.5802 25.8516L63.588 24.7891C64.5307 24.0495 65.3693 23.1328 66.1036 22.0391C65.812 21.7734 65.0594 21.2083 63.8458 20.3438C64.2365 18.7708 64.5255 17.4219 64.713 16.2969C64.2911 16.3542 63.9318 16.375 63.6349 16.3594L63.6193 14.9844C64.2703 14.9531 64.713 14.9219 64.9474 14.8906C65.1557 13.9115 65.3328 12.8646 65.4786 11.75L66.838 11.9453C66.7391 12.8776 66.601 13.8047 66.424 14.7266C66.7573 14.7422 67.2365 14.7057 67.8615 14.6172C67.9135 14.1901 67.9396 13.7995 67.9396 13.4453H69.2521C69.2781 13.9036 69.2833 14.2292 69.2677 14.4219C69.5021 14.401 69.7521 14.3698 70.0177 14.3281L70.0021 15.7031C69.6062 15.7812 69.3354 15.8229 69.1896 15.8281C68.9865 18.2552 68.5646 20.2083 67.924 21.6875C68.6792 22.2969 69.3771 22.9323 70.0177 23.5938ZM67.7521 16.0078C67.2729 16.0807 66.7495 16.1354 66.1818 16.1719C65.9318 17.5469 65.6714 18.7552 65.4005 19.7969C66.0932 20.2917 66.5359 20.612 66.7286 20.7578C67.2651 19.4974 67.6062 17.9141 67.7521 16.0078ZM77.4943 19.4922H74.424V24.2344C74.424 24.724 74.3068 25.0781 74.0724 25.2969C73.8432 25.5156 73.5411 25.6562 73.1661 25.7188C72.7911 25.7812 72.0203 25.8125 70.8536 25.8125L70.3068 24.3906C71.0307 24.4115 71.7521 24.4219 72.4708 24.4219C72.799 24.4219 72.963 24.2578 72.963 23.9297V19.4922H69.3849V18.0703H72.963V16.2812C73.7755 15.3646 74.5125 14.4635 75.174 13.5781H69.7208V12.1719H76.963V13.5781C76.1297 14.724 75.2833 15.8125 74.424 16.8438V18.0703H77.4943V19.4922Z" fill="white"/>
</svg>
