<svg width="65" height="36" viewBox="0 0 65 36" fill="none" xmlns="http://www.w3.org/2000/svg">
<path d="M0 4C0 1.79086 1.79086 0 4 0H61C63.2091 0 65 1.79086 65 4V32C65 34.2091 63.2091 36 61 36H4C1.79086 36 0 34.2091 0 32V4Z" fill="#323D47"/>
<path d="M21.2148 16.875H19.8398V13.2422H12.5273V16.875H11.1835V12.0547H21.2148V16.875ZM19.2773 15H13.0273V13.9453H19.2773V15ZM19.2773 16.7578H13.0273V15.7188H19.2773V16.7578ZM23.1523 18.6484H15.9882V25.8281H14.6601V24.4688C12.5351 24.7188 10.8059 24.849 9.47257 24.8594L9.12101 23.5938H10.4491V18.6484H9.23038V17.4609H23.1523V18.6484ZM14.6601 19.4297V18.6484H11.8085V19.4297H14.6601ZM14.6601 21.3516V20.4844H11.8085V21.3516H14.6601ZM14.6601 23.2266V22.4219H11.8085V23.4922C13.1939 23.4036 14.1444 23.3151 14.6601 23.2266ZM23.2304 24.7109L22.496 25.9453C21.4023 25.4818 20.5064 24.974 19.8085 24.4219C18.9179 25.0781 17.9622 25.5651 16.9413 25.8828L16.2226 24.7109C17.0299 24.513 17.884 24.125 18.7851 23.5469C18.1444 22.8594 17.5689 21.9297 17.0585 20.7578H16.5273V19.5156H22.5585C22.3606 20.9583 21.7538 22.2969 20.7382 23.5312C21.509 24.0573 22.3398 24.4505 23.2304 24.7109ZM20.8632 20.7578H18.4804C18.7981 21.4766 19.2252 22.112 19.7616 22.6641C20.2043 22.138 20.5715 21.5026 20.8632 20.7578ZM37.1875 12.3125C36.3281 12.8229 35.5703 13.1849 34.9141 13.3984L33.4453 12.7266C34.2786 12.3724 35.0312 11.9948 35.7031 11.5938L37.1875 12.3125ZM31.6016 12.7266L30.1328 13.3984C29.4974 13.0234 28.7188 12.6667 27.7969 12.3281L29.2812 11.6094C30.1458 11.9062 30.9193 12.2786 31.6016 12.7266ZM39.5703 14.9219H25.6484V13.5938H39.5703V14.9219ZM38.4375 24.0547C38.4375 24.7214 38.2839 25.1641 37.9766 25.3828C37.6693 25.6068 37.099 25.7188 36.2656 25.7188C35.9375 25.7188 35.5885 25.7083 35.2188 25.6875L34.7734 24.3125H36.7734C36.8464 24.3125 36.9141 24.2708 36.9766 24.1875C37.0443 24.1042 37.0781 24.0182 37.0781 23.9297V15.7969H38.4375V24.0547ZM32.5156 24.2344C32.5156 24.6458 32.4271 24.9583 32.25 25.1719C32.0781 25.3906 31.8672 25.5339 31.6172 25.6016C31.3724 25.6745 30.9375 25.7109 30.3125 25.7109C30 25.7109 29.7214 25.7031 29.4766 25.6875L28.9766 24.3125C29.2057 24.3385 29.4531 24.3516 29.7188 24.3516C30.3281 24.3516 30.7266 24.3307 30.9141 24.2891C31.1068 24.2474 31.2031 24.138 31.2031 23.9609V22.3438H28.1328C27.8932 23.8125 27.4141 24.9583 26.6953 25.7812L25.5234 25.0312C26.4714 24.0781 26.9453 22.4089 26.9453 20.0234V15.9297H32.5156V24.2344ZM31.2031 18.5234V17.2109H28.2891V18.5234H31.2031ZM31.2031 21.125V19.7656H28.2891V21.125H31.2031ZM35.5234 23.0625H34.1328V16.1484H35.5234V23.0625ZM55.8634 13.4453H49.6368C49.491 13.8672 49.3165 14.3203 49.1134 14.8047H54.3946V22.8203H46.7774L47.6212 23.6719C46.2878 24.6354 44.6681 25.3932 42.7618 25.9453L41.9259 24.7891C43.6342 24.3568 45.1655 23.7005 46.5196 22.8203H43.4649V14.8047H47.6368C47.8347 14.4193 48.017 13.9661 48.1837 13.4453H41.9571V12.1328H55.8634V13.4453ZM52.9649 17.1094V16.0234H44.9024V17.1094H52.9649ZM52.9649 19.3828V18.2969H44.9024V19.3828H52.9649ZM52.9649 21.6094V20.5703H44.9024V21.6094H52.9649ZM55.879 24.7891L55.1446 25.9141C53.8946 25.3151 52.267 24.7708 50.2618 24.2812L50.9962 23.1406C52.9545 23.5833 54.5821 24.1328 55.879 24.7891Z" fill="white"/>
</svg>
