<svg width="82" height="36" viewBox="0 0 82 36" fill="none" xmlns="http://www.w3.org/2000/svg">
<path d="M0 4C0 1.79086 1.79086 0 4 0H78C80.2091 0 82 1.79086 82 4V32C82 34.2091 80.2091 36 78 36H4C1.79086 36 0 34.2091 0 32V4Z" fill="#323D47"/>
<path d="M21.537 16.875H20.162V13.2422H12.8495V16.875H11.5057V12.0547H21.537V16.875ZM19.5995 15H13.3495V13.9453H19.5995V15ZM19.5995 16.7578H13.3495V15.7188H19.5995V16.7578ZM23.4745 18.6484H16.3104V25.8281H14.9823V24.4688C12.8573 24.7188 11.1281 24.849 9.79479 24.8594L9.44323 23.5938H10.7714V18.6484H9.5526V17.4609H23.4745V18.6484ZM14.9823 19.4297V18.6484H12.1307V19.4297H14.9823ZM14.9823 21.3516V20.4844H12.1307V21.3516H14.9823ZM14.9823 23.2266V22.4219H12.1307V23.4922C13.5161 23.4036 14.4667 23.3151 14.9823 23.2266ZM23.5526 24.7109L22.8182 25.9453C21.7245 25.4818 20.8286 24.974 20.1307 24.4219C19.2401 25.0781 18.2844 25.5651 17.2635 25.8828L16.5448 24.7109C17.3521 24.513 18.2063 24.125 19.1073 23.5469C18.4667 22.8594 17.8911 21.9297 17.3807 20.7578H16.8495V19.5156H22.8807C22.6828 20.9583 22.076 22.2969 21.0604 23.5312C21.8313 24.0573 22.662 24.4505 23.5526 24.7109ZM21.1854 20.7578H18.8026C19.1203 21.4766 19.5474 22.112 20.0839 22.6641C20.5266 22.138 20.8938 21.5026 21.1854 20.7578ZM40.0566 24.6328L39.4472 25.9141C37.3743 25.5026 35.8066 25.0104 34.7441 24.4375C33.8066 24.9062 32.2545 25.3828 30.0878 25.8672L29.4941 24.6172C31.0462 24.362 32.3535 24.0156 33.416 23.5781C32.9368 23.2031 32.4394 22.7214 31.9238 22.1328C31.6113 22.4089 31.1373 22.7682 30.5019 23.2109L29.6035 22.2188C30.2285 21.8073 30.7311 21.4375 31.1113 21.1094L30.5332 20.2188L31.6035 19.5312C31.7128 19.7188 31.8691 19.9323 32.0722 20.1719C32.3743 19.8594 32.6894 19.4531 33.0175 18.9531C31.955 18.974 31.1269 18.9948 30.5332 19.0156L30.2441 17.7344C31.2649 17.4583 32.4915 16.8724 33.9238 15.9766C33.304 16.0182 32.3509 16.0599 31.0644 16.1016L30.8222 14.9688C32.1087 14.2656 33.33 13.1823 34.4863 11.7188L35.8613 12.3125C34.9655 13.4062 33.9524 14.2552 32.8222 14.8594C33.7024 14.8125 34.679 14.737 35.7519 14.6328C36.6842 13.7526 37.2493 13.2135 37.4472 13.0156L38.791 13.6562C36.8587 15.5885 34.7988 16.987 32.6113 17.8516C33.6998 17.7943 35.205 17.638 37.1269 17.3828C36.955 17.1536 36.7311 16.8828 36.455 16.5703L37.6191 15.8984C38.6295 17.0339 39.3665 18.0208 39.83 18.8594L38.6113 19.4922C38.4655 19.2109 38.2519 18.8828 37.9707 18.5078C36.8196 18.6328 35.6894 18.737 34.58 18.8203C34.4811 19.013 34.2467 19.4036 33.8769 19.9922H38.58V21.3047C37.8352 22.2526 37.0097 23.0312 36.1035 23.6406C37.5097 24.1562 38.8274 24.487 40.0566 24.6328ZM36.8691 21.3047H32.9316C33.4108 21.9089 34.0097 22.4479 34.7285 22.9219C35.2285 22.6667 35.942 22.1276 36.8691 21.3047ZM30.0253 12.3438C28.9889 13.8542 27.8405 15.0755 26.58 16.0078L25.83 14.7734C26.8717 14.0755 27.8483 13.0573 28.7597 11.7188L30.0253 12.3438ZM30.6113 15.5938C30.2415 16.2292 29.7311 17.0078 29.08 17.9297V25.7969H27.6738V19.5156C27.1217 20.0677 26.7311 20.4245 26.5019 20.5859L25.7519 19.2578C26.9342 18.4714 28.1608 17.0365 29.4316 14.9531L30.6113 15.5938ZM56.1856 19.1797H42.2637V17.7656H56.1856V19.1797ZM72.5411 13.4453H66.3146C66.1687 13.8672 65.9943 14.3203 65.7911 14.8047H71.0724V22.8203H63.4552L64.299 23.6719C62.9656 24.6354 61.3458 25.3932 59.4396 25.9453L58.6036 24.7891C60.312 24.3568 61.8432 23.7005 63.1974 22.8203H60.1427V14.8047H64.3146C64.5125 14.4193 64.6948 13.9661 64.8615 13.4453H58.6349V12.1328H72.5411V13.4453ZM69.6427 17.1094V16.0234H61.5802V17.1094H69.6427ZM69.6427 19.3828V18.2969H61.5802V19.3828H69.6427ZM69.6427 21.6094V20.5703H61.5802V21.6094H69.6427ZM72.5568 24.7891L71.8224 25.9141C70.5724 25.3151 68.9448 24.7708 66.9396 24.2812L67.674 23.1406C69.6323 23.5833 71.2599 24.1328 72.5568 24.7891Z" fill="white"/>
</svg>
