<svg width="65" height="36" viewBox="0 0 65 36" fill="none" xmlns="http://www.w3.org/2000/svg">
<path d="M0 4C0 1.79086 1.79086 0 4 0H61C63.2091 0 65 1.79086 65 4V32C65 34.2091 63.2091 36 61 36H4C1.79086 36 0 34.2091 0 32V4Z" fill="#323D47"/>
<path d="M23.1366 25.4141H9.18351V23.9766H14.9257V11.8281H16.4179V16.6328H22.4491V18.0391H16.4179V23.9766H23.1366V25.4141ZM39.5078 19.1797H25.5859V17.7656H39.5078V19.1797ZM55.8634 13.4453H49.6368C49.491 13.8672 49.3165 14.3203 49.1134 14.8047H54.3946V22.8203H46.7774L47.6212 23.6719C46.2878 24.6354 44.6681 25.3932 42.7618 25.9453L41.9259 24.7891C43.6342 24.3568 45.1655 23.7005 46.5196 22.8203H43.4649V14.8047H47.6368C47.8347 14.4193 48.017 13.9661 48.1837 13.4453H41.9571V12.1328H55.8634V13.4453ZM52.9649 17.1094V16.0234H44.9024V17.1094H52.9649ZM52.9649 19.3828V18.2969H44.9024V19.3828H52.9649ZM52.9649 21.6094V20.5703H44.9024V21.6094H52.9649ZM55.879 24.7891L55.1446 25.9141C53.8946 25.3151 52.267 24.7708 50.2618 24.2812L50.9962 23.1406C52.9545 23.5833 54.5821 24.1328 55.879 24.7891Z" fill="white"/>
</svg>
