<svg width="20" height="20" viewBox="0 0 20 20" fill="none" xmlns="http://www.w3.org/2000/svg">
<path d="M15.0005 6.33333V3.83333C15.0005 3.375 14.6255 3 14.1672 3H5.83382C5.37549 3 5.00049 3.375 5.00049 3.83333V6.33333H15.0005Z" fill="#0070B2"/>
<path d="M15.8337 7.16663H4.16699C2.78366 7.16663 1.66699 8.28329 1.66699 9.66663V13.8333C1.66699 14.2916 2.04199 14.6666 2.50033 14.6666H5.00033V16.3333C5.00033 17.25 5.75033 18 6.66699 18H13.3337C14.2503 18 15.0003 17.25 15.0003 16.3333V14.6666H17.5003C17.9587 14.6666 18.3337 14.2916 18.3337 13.8333V9.66663C18.3337 8.28329 17.217 7.16663 15.8337 7.16663ZM13.3337 16.3333H6.66699V13H13.3337V16.3333ZM15.0003 10.9166C14.542 10.9166 14.167 10.5416 14.167 10.0833C14.167 9.62496 14.542 9.24996 15.0003 9.24996C15.4587 9.24996 15.8337 9.62496 15.8337 10.0833C15.8337 10.5416 15.4587 10.9166 15.0003 10.9166Z" fill="#0070B2"/>
</svg>
