<svg width="130" height="36" viewBox="0 0 130 36" fill="none" xmlns="http://www.w3.org/2000/svg">
<path d="M0 4C0 1.79086 1.79086 0 4 0H126C128.209 0 130 1.79086 130 4V32C130 34.2091 128.209 36 126 36H4C1.79086 36 0 34.2091 0 32V4Z" fill="#323D47"/>
<path d="M64.0253 17.1562L63.2363 18.3906C62.8977 18.1719 62.5618 17.974 62.2285 17.7969V23.125H51.5566V17.9922C51.1139 18.2161 50.7675 18.3698 50.5175 18.4531L49.7832 17.1953C51.9967 16.3568 53.7571 15.4427 55.0644 14.4531H49.9238V13.125H56.166V11.8516H57.5878V13.125H63.83V14.4531H57.5878C59.942 15.1979 62.0878 16.099 64.0253 17.1562ZM56.166 17.5781V15.3047C55.0722 16.1693 53.8509 16.9271 52.5019 17.5781H56.166ZM61.7675 17.5781C60.455 16.8906 59.0618 16.2969 57.5878 15.7969V17.5781H61.7675ZM60.7753 19.75V18.875H53.0175V19.75H60.7753ZM60.7753 21.8672V20.9375H53.0175V21.8672H60.7753ZM63.8457 25.4766H49.955V24.1875H63.8457V25.4766ZM79.9747 13.6875C79.9747 16.4375 79.9382 18.8359 79.8653 20.8828C79.7924 22.9245 79.6856 24.1589 79.545 24.5859C79.4095 25.013 79.1726 25.3229 78.834 25.5156C78.5007 25.7135 77.9043 25.8125 77.045 25.8125C76.67 25.8125 76.3184 25.8021 75.9903 25.7812L75.4825 24.4219C76.0762 24.4531 76.834 24.4688 77.7559 24.4688C77.8549 24.4688 77.9616 24.4245 78.0762 24.3359C78.1908 24.2422 78.2585 24.1172 78.2793 23.9609L78.4434 21.1172C78.5372 19.388 78.584 17.3542 78.584 15.0156H74.2012C73.9773 15.4115 73.6778 15.8698 73.3028 16.3906H77.3028V23.2422H72.6309V17.2266C72.4694 17.4193 72.3158 17.5729 72.17 17.6875L71.3887 16.4375C72.5502 15.25 73.5137 13.6615 74.2793 11.6719L75.6075 12.1016C75.42 12.6276 75.1856 13.1562 74.9043 13.6875H79.9747ZM75.9278 19.1406V17.6875H74.0762V19.1406H75.9278ZM75.9278 21.9297V20.3906H74.0762V21.9297H75.9278ZM71.7559 14.5859H66.2325V13.3047H68.3106C68.1856 12.8776 68.0319 12.4766 67.8497 12.1016L69.2559 11.7188C69.5007 12.2917 69.6934 12.8203 69.834 13.3047H71.7559V14.5859ZM71.1934 16.9688H66.6153V15.6875H71.1934V16.9688ZM71.1934 19.2734H66.6153V18.0078H71.1934V19.2734ZM71.1934 25.5625H69.7715V24.8438H68.0293V25.8125H66.6153V20.375H71.1934V25.5625ZM69.7715 23.5625V21.6562H68.0293V23.5625H69.7715Z" fill="white"/>
</svg>
