<svg width="72" height="36" viewBox="0 0 72 36" fill="none" xmlns="http://www.w3.org/2000/svg">
<path d="M0 4C0 1.79086 1.79086 0 4 0H68C70.2091 0 72 1.79086 72 4V32C72 34.2091 70.2091 36 68 36H4C1.79086 36 0 34.2091 0 32V4Z" fill="#323D47"/>
<path d="M35.0253 17.1562L34.2363 18.3906C33.8977 18.1719 33.5618 17.974 33.2285 17.7969V23.125H22.5566V17.9922C22.1139 18.2161 21.7675 18.3698 21.5175 18.4531L20.7832 17.1953C22.9967 16.3568 24.7571 15.4427 26.0644 14.4531H20.9238V13.125H27.166V11.8516H28.5878V13.125H34.83V14.4531H28.5878C30.942 15.1979 33.0878 16.099 35.0253 17.1562ZM27.166 17.5781V15.3047C26.0722 16.1693 24.8509 16.9271 23.5019 17.5781H27.166ZM32.7675 17.5781C31.455 16.8906 30.0618 16.2969 28.5878 15.7969V17.5781H32.7675ZM31.7753 19.75V18.875H24.0175V19.75H31.7753ZM31.7753 21.8672V20.9375H24.0175V21.8672H31.7753ZM34.8457 25.4766H20.955V24.1875H34.8457V25.4766ZM50.9747 13.6875C50.9747 16.4375 50.9382 18.8359 50.8653 20.8828C50.7924 22.9245 50.6856 24.1589 50.545 24.5859C50.4095 25.013 50.1726 25.3229 49.834 25.5156C49.5007 25.7135 48.9043 25.8125 48.045 25.8125C47.67 25.8125 47.3184 25.8021 46.9903 25.7812L46.4825 24.4219C47.0762 24.4531 47.834 24.4688 48.7559 24.4688C48.8549 24.4688 48.9616 24.4245 49.0762 24.3359C49.1908 24.2422 49.2585 24.1172 49.2793 23.9609L49.4434 21.1172C49.5372 19.388 49.584 17.3542 49.584 15.0156H45.2012C44.9773 15.4115 44.6778 15.8698 44.3028 16.3906H48.3028V23.2422H43.6309V17.2266C43.4694 17.4193 43.3158 17.5729 43.17 17.6875L42.3887 16.4375C43.5502 15.25 44.5137 13.6615 45.2793 11.6719L46.6075 12.1016C46.42 12.6276 46.1856 13.1562 45.9043 13.6875H50.9747ZM46.9278 19.1406V17.6875H45.0762V19.1406H46.9278ZM46.9278 21.9297V20.3906H45.0762V21.9297H46.9278ZM42.7559 14.5859H37.2325V13.3047H39.3106C39.1856 12.8776 39.0319 12.4766 38.8497 12.1016L40.2559 11.7188C40.5007 12.2917 40.6934 12.8203 40.834 13.3047H42.7559V14.5859ZM42.1934 16.9688H37.6153V15.6875H42.1934V16.9688ZM42.1934 19.2734H37.6153V18.0078H42.1934V19.2734ZM42.1934 25.5625H40.7715V24.8438H39.0293V25.8125H37.6153V20.375H42.1934V25.5625ZM40.7715 23.5625V21.6562H39.0293V23.5625H40.7715Z" fill="white"/>
</svg>
