<svg width="16" height="16" viewBox="0 0 16 16" fill="none" xmlns="http://www.w3.org/2000/svg">
<path d="M11.3347 6C11.4068 6 11.4709 5.96907 11.519 5.92268L11.9198 5.53608C11.9679 5.48969 12 5.4201 12 5.35825C12 5.29639 11.9679 5.2268 11.9198 5.18041L8.18437 1.57732C8.13627 1.53093 8.06413 1.5 8 1.5C7.93587 1.5 7.86373 1.53093 7.81563 1.57732L4.08016 5.18041C4.03206 5.2268 4 5.29639 4 5.35825C4 5.4201 4.03206 5.48969 4.08016 5.53608L4.48096 5.92268C4.52906 5.96907 4.6012 6 4.66533 6C4.72946 6 4.8016 5.96907 4.8497 5.92268L8 2.88402L11.1503 5.92268C11.1984 5.96907 11.2705 6 11.3347 6Z" fill="white" stroke="white" stroke-width="0.3"/>
<path d="M4.66533 10C4.59319 10 4.52906 10.0309 4.48096 10.0773L4.08016 10.4639C4.03206 10.5103 4 10.5799 4 10.6418C4 10.7036 4.03206 10.7732 4.08016 10.8196L7.81563 14.4227C7.86373 14.4691 7.93587 14.5 8 14.5C8.06413 14.5 8.13627 14.4691 8.18437 14.4227L11.9198 10.8196C11.9679 10.7732 12 10.7036 12 10.6418C12 10.5799 11.9679 10.5103 11.9198 10.4639L11.519 10.0773C11.4709 10.0309 11.3988 10 11.3347 10C11.2705 10 11.1984 10.0309 11.1503 10.0773L8 13.116L4.8497 10.0773C4.8016 10.0309 4.72946 10 4.66533 10Z" fill="white" stroke="white" stroke-width="0.3"/>
</svg>
