<svg width="266" height="42" viewBox="0 0 266 42" fill="none" xmlns="http://www.w3.org/2000/svg">
<rect width="266" height="42" fill="#999999"/>
<path d="M68.8109 17.0703C68.8005 19.388 68.7432 21.6536 68.6391 23.8672C68.5349 26.0755 68.4229 27.3516 68.3031 27.6953C68.1833 28.0391 67.9698 28.3099 67.6625 28.5078C67.3552 28.7057 66.8656 28.8047 66.1937 28.8047C65.8604 28.8047 65.5271 28.7917 65.1937 28.7656L64.7953 27.3594C65.2276 27.3906 65.5818 27.4062 65.8578 27.4062C66.5297 27.4062 66.9177 27.2057 67.0219 26.8047C67.1312 26.4036 67.2458 23.6172 67.3656 18.4453H65.4984C65.3474 22.9557 64.4229 26.4349 62.725 28.8828L61.5141 28.0312C63.2016 25.5417 64.0531 22.3464 64.0687 18.4453H61.8969V17.0703H64.1078L64.1703 14.7812H65.5922L65.5297 17.0703H68.8109ZM75.2719 28.8125H73.8656V27.6953H71.2562V28.7969H69.8656V16.0469H75.2719V28.8125ZM73.8656 26.2734V17.4531H71.2562V26.2734H73.8656ZM91.5828 16.6719H89.1609V17.4062H87.8016V14.8672H89.1609V15.5703H91.5828V16.6719ZM86.1219 17.4062H84.7312V16.6719H82.3484V15.5703H84.7156L84.7312 14.8672H86.1219V17.4062ZM82.5906 21.7734L81.6141 22.7031C81.437 22.1354 81.2078 21.6068 80.9266 21.1172V28.7812H79.5125V21.6328C79.2365 22.8047 78.8172 23.8438 78.2547 24.75L77.5672 23.1875C78.2859 22.0104 78.8719 20.5469 79.325 18.7969H77.8016V17.4219H79.5125V14.8672H80.9266V17.4219H82.2234V18.7969H80.9266V19.0703C81.6193 19.9714 82.174 20.8724 82.5906 21.7734ZM91.1141 20.4609H87.3406V17.7891H91.1141V20.4609ZM89.8172 19.5078V18.7344H88.6375V19.5078H89.8172ZM86.5594 20.4609H82.7781V17.7891H86.5594V20.4609ZM85.2625 19.5078V18.7344H84.075V19.5078H85.2625ZM91.7078 28.1797H84.4734V28.7812H83.0828V24.0156C82.8641 24.224 82.5333 24.4948 82.0906 24.8281L81.4812 23.6641C82.4187 22.9557 83.3042 21.9219 84.1375 20.5625L85.3562 20.9922C85.3094 21.138 85.1974 21.3359 85.0203 21.5859H86.7469C86.6792 21.4349 86.5568 21.2161 86.3797 20.9297L87.7703 20.7031C87.8693 20.8802 88.0151 21.1745 88.2078 21.5859H91.4969V22.5938H88.1219V23.4531H91.0047V24.3828H88.1219V25.2812H91.0047V26.2109H88.1219V27.1719H91.7078V28.1797ZM86.7625 23.4531V22.5938H84.4734V23.4531H86.7625ZM86.7625 25.2812V24.3828H84.4734V25.2812H86.7625ZM86.7625 27.1719V26.2109H84.4734V27.1719H86.7625ZM99.0891 21.8203L97.2141 22.6562V27.3906C97.2141 28.3073 96.5786 28.7656 95.3078 28.7656C95.037 28.7656 94.7557 28.7552 94.4641 28.7344L94.05 27.3281C94.5292 27.349 94.9823 27.3594 95.4094 27.3594C95.5188 27.3594 95.6203 27.3229 95.7141 27.25C95.8078 27.1719 95.8547 27.0807 95.8547 26.9766V23.25C95.2089 23.5052 94.6438 23.7135 94.1594 23.875L93.7922 22.4922C94.8182 22.138 95.5057 21.888 95.8547 21.7422V18.7344H93.9016V17.375H95.8547V14.8281H97.2141V17.375H98.8625V18.7344H97.2141V21.1719C97.7245 20.9792 98.2792 20.737 98.8781 20.4453L99.0891 21.8203ZM107.823 20.4297H101.027C100.558 20.4297 100.193 20.2812 99.9328 19.9844C99.6776 19.6875 99.55 19.2865 99.55 18.7812V14.8516H100.941V16.0781H107.167V17.4375H100.941V18.5156C100.941 18.9062 101.128 19.1016 101.503 19.1016H107.823V20.4297ZM107.058 28.7812H105.667V28L101.058 27.9688V28.7812H99.6516V21.6016H107.058V28.7812ZM105.667 24.1406V22.9141H101.058V24.1406H105.667ZM105.667 26.7031V25.3906H101.058V26.7031H105.667ZM124.134 27.7422L123.431 28.9297C122.327 28.0964 121.543 27.3125 121.08 26.5781C120.434 27.474 119.702 28.2474 118.884 28.8984L117.955 27.8438C118.96 27.0312 119.733 26.1875 120.275 25.3125C119.749 24.3802 119.351 23.3125 119.08 22.1094L120.306 21.4375C120.53 22.4167 120.754 23.1589 120.978 23.6641C121.374 22.362 121.603 20.6172 121.666 18.4297H120.486C119.986 19.9089 119.489 21.0391 118.994 21.8203L118.072 20.6719C118.931 19.0625 119.548 17.0833 119.923 14.7344L121.283 14.9297C121.215 15.388 121.072 16.112 120.853 17.1016H123.908V18.4297H123.025C122.91 21.3516 122.507 23.6406 121.814 25.2969C122.444 26.2656 123.218 27.0807 124.134 27.7422ZM118.486 25.3438H116.548C116.168 25.9115 115.832 26.349 115.541 26.6562C116.395 27 117.132 27.3255 117.752 27.6328L116.962 28.6562C115.895 28.1615 115.069 27.8047 114.486 27.5859C113.059 28.2995 111.726 28.7526 110.486 28.9453L109.923 27.7422C111.043 27.6016 112.02 27.3568 112.853 27.0078C112.035 26.7109 111.348 26.5026 110.791 26.3828C111.296 25.8411 111.603 25.4948 111.712 25.3438H110.048V24.2578H112.58L113.173 23.3438H110.744V20.7031H113.541V19.9531H110.705V18.2109H109.986V17.1875H110.705V15.4688H113.541V14.8516H114.869V15.4688H117.666V17.1875H118.455V18.2109H117.666V19.9531H114.869V20.7031H117.697V23.3438H114.775L114.197 24.2578H115.65C115.728 24.1276 115.814 23.9453 115.908 23.7109L117.142 24C117.142 24.0781 117.114 24.1641 117.056 24.2578H118.486V25.3438ZM116.369 17.1875V16.4766H114.869V17.1875H116.369ZM113.541 17.1875V16.4766H111.986V17.1875H113.541ZM116.369 18.9609V18.2109H114.869V18.9609H116.369ZM113.541 18.9766V18.2109H111.986V18.9766H113.541ZM116.423 22.3203V21.6953H114.869V22.3203H116.423ZM113.541 22.3203V21.6953H112.033V22.3203H113.541ZM114.994 25.3438H113.416C113.395 25.3802 113.27 25.5391 113.041 25.8203L114.275 26.1953C114.572 25.8984 114.811 25.6146 114.994 25.3438ZM133.258 27.6484L132.008 28.1406C131.805 27.4948 131.607 26.9531 131.414 26.5156C129.69 27.2552 128.122 27.8568 126.711 28.3203L126.219 27.0391C126.464 26.8828 126.586 26.6797 126.586 26.4297V15.0859H132.602V22.5469H128.023V26.4141C128.919 26.1016 129.875 25.7344 130.891 25.3125C130.651 24.7083 130.378 24.1693 130.07 23.6953L131.305 23.1719C132.174 24.6927 132.826 26.1849 133.258 27.6484ZM131.195 18.0938V16.3984H128.023V18.0938H131.195ZM131.195 21.2188V19.3906H128.023V21.2188H131.195ZM139.672 25.5547C139.672 26.2891 139.492 26.7734 139.133 27.0078C138.779 27.237 138.177 27.3516 137.328 27.3516C137.005 27.3516 136.661 27.3438 136.297 27.3281L135.898 25.8906C136.544 25.9219 137.195 25.9375 137.852 25.9375C137.951 25.9375 138.042 25.8906 138.125 25.7969C138.208 25.7031 138.25 25.599 138.25 25.4844V16.4922H135.461V28.8125H134.055V15.1016H139.672V25.5547ZM155.952 17.6797H152.397V19.4062H155.53V20.6719H147.913V19.4062H150.991V17.6797H147.498V16.3984H151.006V14.8281H152.381V16.3984H155.952V17.6797ZM146.702 27.6484H145.342V26.9141H143.998V28.0312H142.608V15.7422H146.702V27.6484ZM145.342 20.8281V17.0391L143.998 17.0234V20.8125L145.342 20.8281ZM145.342 25.6172V22.125H143.998V25.6172H145.342ZM156.108 23.5547H154.569V27.3125C154.569 27.7031 154.491 28.0078 154.334 28.2266C154.178 28.4505 153.98 28.599 153.741 28.6719C153.501 28.7448 153.032 28.7812 152.334 28.7812C151.975 28.7812 151.644 28.7708 151.342 28.75L150.92 27.4375C151.655 27.4167 152.295 27.4062 152.842 27.4062C153.077 27.4062 153.194 27.2786 153.194 27.0234V23.5547H147.342V22.2734H153.194V21.25H154.569V22.2734H156.108V23.5547ZM151.256 26.3359L150.092 27.1016C149.571 26.3672 148.894 25.599 148.061 24.7969L149.163 23.9844C150.09 24.8177 150.788 25.6016 151.256 26.3359ZM172.387 27.1875L172.114 28.5469C171.552 28.5573 170.94 28.5625 170.278 28.5625C168.679 28.5625 167.262 28.5286 166.028 28.4609C164.799 28.3932 163.794 28.1589 163.012 27.7578C162.236 27.3516 161.611 26.7917 161.137 26.0781C160.606 27.1198 159.924 28.0755 159.091 28.9453L158.161 27.7891C159.708 26.1953 160.539 24.25 160.653 21.9531H162.161C162.088 22.7031 161.921 23.5781 161.661 24.5781C162.463 25.9115 163.531 26.6745 164.864 26.8672V21.0391H158.302V19.7266H164.497V18.0156H159.395V16.7031H164.497V14.8672H165.981V16.7031H171.153V18.0156H165.981V19.7266H172.177V21.0391H166.317V23.2188H171.247V24.5625H166.317V27.0547C167.848 27.1536 169.361 27.2031 170.856 27.2031C171.377 27.2031 171.887 27.1979 172.387 27.1875ZM188.487 21.0859C188.326 22.8203 187.86 23.6875 187.089 23.6875C186.698 23.6875 186.362 23.401 186.081 22.8281C185.805 22.2552 185.667 20.8724 185.667 18.6797C185.667 18.3047 185.672 17.9661 185.683 17.6641H184.55C184.498 18.6328 184.391 19.4766 184.23 20.1953C184.641 20.6589 184.998 21.1016 185.3 21.5234L184.386 22.5938C184.058 22.0677 183.855 21.763 183.777 21.6797C183.501 22.3411 183.107 22.987 182.597 23.6172L181.667 22.6719C182.152 22.1198 182.547 21.4375 182.855 20.625C182.599 20.3177 182.209 19.9453 181.683 19.5078L182.448 18.4922C182.667 18.6589 182.899 18.862 183.144 19.1016C183.222 18.5547 183.269 18.0755 183.284 17.6641H181.761V16.3984H183.284C183.321 15.9453 183.331 15.4115 183.316 14.7969L184.581 14.8281C184.597 15.4375 184.597 15.9609 184.581 16.3984H187.027C186.995 17.2318 186.98 18.6771 186.98 20.7344C186.98 21.1771 186.998 21.5104 187.034 21.7344C187.076 21.9531 187.112 22.0625 187.144 22.0625C187.17 22.0625 187.219 21.9297 187.292 21.6641C187.365 21.3932 187.415 21.026 187.441 20.5625L188.487 21.0859ZM181.347 18.2422H180.112V18.6719C180.112 18.8646 180.214 18.9609 180.417 18.9609H181.222V20.0312H180.05C179.274 20.0312 178.886 19.6641 178.886 18.9297V18.2422H177.511C177.391 18.7891 177.079 19.2682 176.573 19.6797C176.068 20.0911 175.49 20.3516 174.839 20.4609L174.245 19.4375C175.334 19.1979 176.001 18.7995 176.245 18.2422H174.386V17.25H177.347V16.5312H175.058V15.5234H177.347V14.8281H178.675V15.5234H180.98V16.5312H178.675V17.25H181.347V18.2422ZM181.378 23.2344C179.305 23.4271 177.081 23.5911 174.706 23.7266L174.519 22.5938C175.54 22.5938 176.482 22.5677 177.347 22.5156V21.7109H175.105V20.6562H177.347V19.7266H178.706V20.6562H180.98V21.7109H178.706V22.4141C179.566 22.3672 180.451 22.2943 181.362 22.1953L181.378 23.2344ZM187.222 24.4609C187.154 25.4453 187.055 26.2396 186.925 26.8438C186.8 27.4479 186.612 27.8828 186.362 28.1484C186.112 28.4193 185.836 28.599 185.534 28.6875C185.237 28.776 184.675 28.8203 183.847 28.8203C183.566 28.8203 183.323 28.8125 183.12 28.7969L182.644 27.4844C183.05 27.5156 183.435 27.5312 183.8 27.5312C184.451 27.5312 184.857 27.5026 185.019 27.4453C185.185 27.3828 185.321 27.25 185.425 27.0469C185.534 26.8438 185.626 26.3776 185.698 25.6484H181.409C180.399 27.5547 178.347 28.6589 175.253 28.9609L174.612 27.6641C177.389 27.4401 179.123 26.7682 179.816 25.6484H175.48V24.4609H180.37C180.469 24.2578 180.545 23.9974 180.597 23.6797L181.987 23.7109C181.946 24.0495 181.899 24.2995 181.847 24.4609H187.222ZM203.877 28.8516H202.47V28.0156H192.455V28.8125H191.08V15.1016H203.877V28.8516ZM202.47 26.7656V16.3359H192.455V26.7656H202.47ZM201.962 20.7188H192.97V19.7422H196.806V19.2031H193.611V16.8516H201.322V19.2031H198.15V19.7422H201.962V20.7188ZM199.931 18.3516V17.7109H194.986V18.3516H199.931ZM201.509 26.2422H193.431V21.25H201.509V26.2422ZM200.166 25.2969V22.2109H194.791V25.2969H200.166ZM199.322 24.7969H195.627V22.7031H199.322V24.7969ZM198.119 24.0312V23.4688H196.822V24.0312H198.119Z" fill="white"/>
</svg>
