<svg width="65" height="34" viewBox="0 0 65 34" fill="none" xmlns="http://www.w3.org/2000/svg">
<path d="M0 4C0 1.79086 1.79086 0 4 0H61C63.2091 0 65 1.79086 65 4V30C65 32.2091 63.2091 34 61 34H4C1.79086 34 0 32.2091 0 30V4Z" fill="#323D47"/>
<path d="M31.541 23.5078L30.9472 24.8281C27.6399 24.7292 24.942 24.2135 22.8535 23.2812C21.3587 24.1719 19.6946 24.7214 17.8613 24.9297L17.2519 23.6172C18.9863 23.4505 20.3613 23.1042 21.3769 22.5781C20.58 22.099 19.8977 21.5755 19.33 21.0078L20.416 20.1797C21.2389 20.9089 21.9498 21.4193 22.5488 21.7109C23.0488 21.2422 23.3509 20.5964 23.455 19.7734H18.6894V13.4688H23.6816V12.3672H17.5253V11.0703H31.2207V12.3672H25.0878V13.4688H30.0019V19.7734H24.8691C24.7233 20.8724 24.4082 21.7109 23.9238 22.2891C25.8769 23.013 28.416 23.4193 31.541 23.5078ZM28.58 15.9531V14.7656H25.0722V15.9531H28.58ZM23.6816 15.9531V14.7656H20.0957V15.9531H23.6816ZM28.58 18.4766V17.2188H25.0253C24.9941 17.6042 24.9785 18.0234 24.9785 18.4766H28.58ZM23.6035 17.2188H20.0957V18.4766H23.5878C23.5983 18.3203 23.6035 17.901 23.6035 17.2188ZM41.1387 19.4844H38.1465V24.8281H36.7403V19.4844H33.795V18.1562H36.7403V16.8984H33.959V15.6172H35.5293C35.3783 15.0911 35.1543 14.4818 34.8575 13.7891L35.8106 13.2969H33.9903V12.0156H36.5528C36.4538 11.7135 36.2924 11.388 36.0684 11.0391L37.5918 10.7031C37.8731 11.25 38.071 11.6875 38.1856 12.0156H40.8731V13.2969H39.1387L40.1309 13.8438C39.8809 14.4844 39.6101 15.0755 39.3184 15.6172H40.8887V16.8984H38.1465V18.1562H41.1387V19.4844ZM38.7872 13.2969H36.1856C36.5398 14.0885 36.821 14.862 37.0293 15.6172H37.8809C38.2403 14.8984 38.5424 14.125 38.7872 13.2969ZM47.7012 16.9766H46.2481V24.7969H44.8575V16.9766H43.2403C43.209 20.6224 42.5997 23.2344 41.4122 24.8125L40.2481 23.8594C41.2898 22.4583 41.8106 20.3125 41.8106 17.4219V11.9375C43.597 11.6927 45.1023 11.2969 46.3262 10.75L47.3028 11.9375C46.1413 12.4427 44.7872 12.8464 43.2403 13.1484V15.6016H47.7012V16.9766ZM40.8575 22.0312L39.7012 22.6875C39.4564 21.849 39.1153 21.0495 38.6778 20.2891L39.8653 19.7422C40.3497 20.5755 40.6804 21.3385 40.8575 22.0312ZM36.3731 20.4922C35.8627 21.8776 35.3444 22.9453 34.8184 23.6953L33.67 22.8281C34.222 22.0417 34.7116 21.0677 35.1387 19.9062L36.3731 20.4922Z" fill="white"/>
</svg>
